<svg xmlns="http://www.w3.org/2000/svg" shape-rendering="geometricPrecision" text-rendering="geometricPrecision" image-rendering="optimizeQuality" fill-rule="evenodd" clip-rule="evenodd" viewBox="0 0 419 511.67"><path d="M93 39.4h46.12C141.84 17.18 159.77 0 181.52 0c21.61 0 39.45 16.95 42.34 38.94l46.76.46c2.6 0 4.7 2.09 4.7 4.71v51.84c0 2.6-2.1 4.7-4.7 4.7H93.05c-2.55 0-4.71-2.1-4.71-4.7V44.11A4.638 4.638 0 0 1 93 39.4zm221.98 264.22c57.47 0 104.02 46.59 104.02 104.03 0 57.47-46.58 104.02-104.02 104.02-57.48 0-104.02-46.58-104.02-104.02 0-57.48 46.58-104.03 104.02-104.03zm40.59 88.45c4.59-.03 7.86-.46 7.78 5.24l-.22 18.44c.03 5.95-1.86 7.54-7.43 7.47h-81.46c-5.58.07-7.46-1.52-7.43-7.47l-.22-18.44c-.09-5.7 3.2-5.27 7.79-5.24h81.19zM41.73 59.27h23.93v24.38H41.73c-4.54 0-8.69 1.76-11.79 4.6l-.46.49c-3.14 3.14-5.1 7.49-5.1 12.25v315.53c0 4.75 1.96 9.09 5.1 12.24 3.13 3.15 7.49 5.11 12.25 5.11h142.61c1.69 8.44 4.18 16.6 7.37 24.38H41.73c-11.41 0-21.85-4.71-29.42-12.27C4.72 438.44 0 427.99 0 416.52V100.99c0-11.48 4.7-21.92 12.25-29.47l.8-.72c7.49-7.13 17.61-11.53 28.68-11.53zm297.55 217.37V100.99c0-4.74-1.97-9.09-5.12-12.24-3.12-3.15-7.46-5.1-12.24-5.1h-23.91V59.27h23.91c11.43 0 21.85 4.71 29.42 12.26 7.6 7.56 12.31 18.01 12.31 29.46V283.6c-7.78-3.06-15.94-5.41-24.37-6.96zm-206.75-8.07c-7.13 0-12.92-5.79-12.92-12.93 0-7.13 5.79-12.92 12.92-12.92h142.82c7.13 0 12.93 5.79 12.93 12.92 0 7.14-5.8 12.93-12.93 12.93H132.53zM89.5 241.21c7.98 0 14.44 6.46 14.44 14.44 0 7.98-6.46 14.44-14.44 14.44-7.97 0-14.44-6.46-14.44-14.44 0-7.98 6.47-14.44 14.44-14.44zm0 78.63c7.98 0 14.44 6.45 14.44 14.43 0 7.98-6.46 14.44-14.44 14.44-7.97 0-14.44-6.46-14.44-14.44 0-7.98 6.47-14.43 14.44-14.43zm43.04 27.35c-7.13 0-12.93-5.79-12.93-12.93 0-7.13 5.8-12.92 12.93-12.92h80.96a133.608 133.608 0 0 0-17.26 25.85h-63.7zM89.5 162.6c7.98 0 14.44 6.46 14.44 14.44 0 7.98-6.46 14.44-14.44 14.44-7.97 0-14.44-6.46-14.44-14.44 0-7.98 6.47-14.44 14.44-14.44zm43.03 27.36c-7.13 0-12.92-5.79-12.92-12.92s5.79-12.93 12.92-12.93h142.82c7.13 0 12.93 5.8 12.93 12.93s-5.8 12.92-12.93 12.92H132.53zm48.5-169.81c12.3 0 22.26 9.98 22.26 22.27 0 12.3-9.96 22.26-22.26 22.26-12.29 0-22.26-9.96-22.26-22.26 0-12.29 9.97-22.27 22.26-22.27z"/></svg>